<svg width="71" height="73" viewBox="0 0 71 73" fill="none" xmlns="http://www.w3.org/2000/svg">
<g clip-path="url(#clip0_502_449)">
<path d="M35.5 16.3132L42.8263 7.10609C42.8263 7.10609 55.3756 7.37984 67.8804 13.3567C64.6788 18.3344 58.3243 20.7708 58.3243 20.7708C57.8961 16.3976 54.9163 15.33 45.44 15.33L35.5022 73.0023L25.4957 15.3186C16.0882 15.3186 13.1084 16.3885 12.6802 20.7594C12.6802 20.7594 6.32344 18.3481 3.124 13.3681C15.6267 7.39125 28.1781 7.1175 28.1781 7.1175L35.5044 16.3132H35.4933H35.5ZM35.5 4.45528C45.5998 4.35947 57.1683 6.059 69.012 11.3812C70.5962 8.43378 71 7.14031 71 7.14031C58.058 1.86378 45.9348 0.0479062 35.5 0C25.0652 0.0479062 12.942 1.85466 0 7.14031C0 7.14031 0.576875 8.74403 1.988 11.3948C13.8339 6.04759 25.4002 4.36175 35.5 4.44387V4.45528Z" fill="#F8F8F8"/>
</g>
<defs>
<clipPath id="clip0_502_449">
<rect width="71" height="73" fill="white"/>
</clipPath>
</defs>
</svg>
