<svg id="svg" xmlns="http://www.w3.org/2000/svg" xmlns:xlink="http://www.w3.org/1999/xlink" width="400" height="400" viewBox="0, 0, 400,400" version="1.1"><g id="svgg"><path id="path0" d="M252.805 69.688 C 247.386 71.049,246.126 73.347,245.739 82.581 C 244.436 113.672,244.061 123.500,244.058 126.659 L 244.055 130.369 240.613 137.719 C 235.587 148.454,230.920 157.851,228.635 161.843 C 227.533 163.770,224.476 169.576,221.842 174.747 C 216.862 184.524,215.041 187.648,214.322 187.649 C 213.013 187.651,212.354 169.927,213.390 162.581 C 213.634 160.857,214.575 150.654,215.483 139.908 C 218.186 107.895,218.522 104.246,219.781 93.272 C 222.000 73.924,221.363 72.064,212.535 72.136 C 202.342 72.219,200.202 75.946,200.185 93.641 C 200.182 96.783,199.948 100.931,199.664 102.857 C 198.978 107.514,198.772 110.244,198.119 123.318 C 197.815 129.401,197.424 136.535,197.249 139.171 C 197.074 141.806,196.916 145.764,196.898 147.964 C 196.859 152.831,196.054 154.806,190.398 163.907 C 179.752 181.038,170.759 185.550,166.370 175.962 C 163.657 170.035,163.043 152.174,165.530 151.508 C 178.655 147.997,190.175 129.257,185.154 119.586 C 183.301 116.017,175.953 112.442,170.469 112.442 C 159.061 112.442,145.867 133.506,144.918 153.230 L 144.631 159.179 140.924 166.686 C 138.885 170.815,136.195 176.309,134.946 178.894 C 131.948 185.099,131.816 185.022,132.126 177.235 C 132.596 165.400,133.950 152.888,136.005 141.382 C 139.746 120.442,139.604 119.714,131.575 118.645 C 125.486 117.834,120.974 119.238,117.830 122.921 C 113.717 127.739,103.702 143.730,98.270 154.153 C 96.542 157.470,95.125 159.909,95.121 159.573 C 95.118 159.237,95.686 153.431,96.384 146.670 C 97.083 139.909,97.838 131.972,98.063 129.032 C 98.288 126.092,98.949 120.286,99.532 116.129 C 100.114 111.972,100.940 105.253,101.366 101.198 C 101.793 97.143,102.397 92.000,102.710 89.770 C 104.213 79.043,103.745 74.956,100.857 73.586 C 96.594 71.563,87.694 71.543,84.272 73.549 C 80.967 75.486,80.360 77.498,79.990 87.742 C 79.832 92.101,79.529 98.074,79.316 101.014 C 78.973 105.751,78.326 121.429,77.977 133.456 C 77.735 141.793,77.127 153.257,76.686 157.788 C 74.902 176.118,77.754 185.774,85.149 186.445 C 89.905 186.876,91.813 185.061,96.479 175.668 C 99.523 169.540,105.396 158.579,109.220 151.889 C 113.141 145.031,116.935 138.618,117.071 138.618 C 117.302 138.618,116.831 145.981,116.282 150.968 C 113.952 172.115,116.001 185.976,122.386 192.258 L 124.634 194.470 127.662 194.461 C 134.293 194.441,136.177 192.627,142.520 180.155 L 146.237 172.844 147.245 175.178 C 151.924 186.018,159.306 190.910,171.244 191.083 L 176.037 191.152 178.874 189.797 C 183.958 187.369,189.303 181.496,194.300 172.848 L 196.498 169.044 196.498 173.783 C 196.498 184.856,199.327 194.376,203.824 198.439 C 209.059 203.169,217.995 199.818,222.394 191.476 C 223.130 190.081,225.085 186.535,226.738 183.594 C 229.777 178.191,237.791 162.143,239.994 157.051 C 240.652 155.530,241.669 153.293,242.254 152.079 L 243.318 149.873 243.327 159.084 C 243.350 181.008,246.936 190.361,255.096 189.778 C 261.244 189.338,264.234 186.251,268.698 175.740 C 270.442 171.632,273.325 166.695,273.650 167.261 C 273.744 167.424,274.026 168.221,274.278 169.032 C 276.701 176.830,284.687 183.321,291.845 183.309 C 302.720 183.291,309.864 176.103,313.953 161.067 L 314.615 158.632 316.974 158.163 C 324.884 156.591,332.952 147.416,336.595 135.853 C 336.850 135.041,337.461 133.576,337.952 132.596 C 339.446 129.616,338.493 127.743,335.263 127.309 C 333.383 127.057,332.313 128.082,331.097 131.300 C 327.112 141.845,323.198 147.691,318.780 149.697 C 315.850 151.027,315.869 151.057,316.203 145.714 C 317.610 123.250,315.217 112.071,308.571 110.061 C 299.810 107.412,292.356 111.852,290.787 120.655 C 290.562 121.917,290.344 122.998,290.303 123.058 C 290.262 123.118,289.503 122.984,288.616 122.761 C 286.529 122.236,280.858 122.779,278.942 123.688 C 274.334 125.875,271.383 136.226,271.825 148.656 L 272.018 154.086 266.782 164.508 C 260.530 176.953,259.258 179.047,258.442 178.231 C 257.481 177.271,257.743 164.766,259.279 138.249 C 261.113 106.610,261.294 103.379,261.757 94.009 C 261.973 89.650,262.391 84.590,262.686 82.765 C 263.877 75.401,263.164 70.979,260.644 70.101 C 258.992 69.525,254.415 69.284,252.805 69.688 M305.596 115.627 C 307.547 118.107,308.661 127.712,307.896 135.471 C 307.656 137.911,307.444 141.401,307.426 143.226 C 307.369 148.809,307.316 148.852,304.280 145.786 C 299.496 140.957,297.704 136.432,297.717 129.217 C 297.735 119.354,302.315 111.455,305.596 115.627 M180.108 124.404 C 180.714 128.439,177.898 135.986,174.332 139.887 C 172.773 141.594,167.209 145.253,166.174 145.253 C 165.449 145.253,168.183 135.964,170.185 131.625 C 173.636 124.143,179.436 119.923,180.108 124.404 M296.736 150.811 C 298.278 152.347,300.813 154.556,302.369 155.720 L 305.199 157.837 304.646 159.701 C 302.309 167.569,297.402 174.869,294.450 174.869 C 290.283 174.869,288.470 161.517,290.480 145.632 C 290.698 143.914,290.877 142.338,290.879 142.129 C 290.881 141.921,291.569 143.161,292.408 144.885 C 293.592 147.318,294.560 148.643,296.736 150.811 M338.433 209.756 C 338.433 210.154,338.742 211.356,339.120 212.429 C 339.498 213.501,340.113 215.373,340.486 216.590 C 340.860 217.806,341.297 218.959,341.458 219.152 C 341.619 219.345,341.751 219.635,341.751 219.797 C 341.751 219.959,313.880 220.092,279.816 220.092 L 217.880 220.092 217.877 218.157 C 217.866 212.325,212.361 208.425,207.583 210.863 C 206.211 211.563,203.502 214.335,203.502 215.039 C 203.502 215.228,202.963 214.580,202.304 213.598 C 198.023 207.221,188.776 210.459,188.759 218.341 L 188.756 220.092 136.948 220.092 L 85.141 220.092 80.497 215.300 L 75.854 210.507 68.710 210.507 C 64.781 210.507,61.567 210.639,61.567 210.800 C 61.567 211.132,65.979 215.701,68.848 218.341 L 70.752 220.092 66.776 220.092 L 62.800 220.092 57.894 215.300 L 52.989 210.507 45.481 210.507 C 41.351 210.507,37.972 210.629,37.972 210.779 C 37.972 210.929,40.571 213.654,43.747 216.835 L 49.522 222.618 48.847 223.659 C 48.475 224.232,47.000 225.779,45.568 227.097 C 44.137 228.415,41.800 230.654,40.377 232.074 L 37.788 234.654 45.586 234.754 L 53.384 234.853 58.100 230.053 L 62.815 225.253 66.751 225.253 L 70.687 225.253 66.174 229.585 C 63.692 231.968,61.640 234.124,61.614 234.378 C 61.523 235.264,76.207 235.016,76.490 234.127 C 76.614 233.736,78.626 231.579,80.960 229.334 L 85.205 225.253 138.398 225.253 L 191.591 225.253 192.278 226.012 C 192.655 226.430,194.348 227.607,196.040 228.629 C 198.875 230.341,199.922 231.255,202.518 234.286 L 203.465 235.392 204.097 234.470 C 205.322 232.683,208.307 230.042,211.417 227.994 C 213.147 226.855,214.562 225.772,214.562 225.588 C 214.562 225.389,240.312 225.253,278.196 225.253 C 338.651 225.253,341.817 225.286,341.575 225.899 C 341.434 226.253,340.915 227.928,340.421 229.620 C 339.927 231.312,339.277 233.170,338.978 233.749 C 337.390 236.820,338.332 236.917,343.899 234.256 C 346.266 233.125,349.779 231.564,351.705 230.788 C 355.223 229.370,362.274 226.304,366.912 224.176 C 368.281 223.548,369.401 222.859,369.401 222.646 C 369.401 222.238,365.705 220.448,362.581 219.343 C 361.567 218.985,358.065 217.441,354.799 215.913 C 351.534 214.386,347.054 212.377,344.846 211.449 C 342.637 210.522,340.541 209.599,340.189 209.398 C 339.174 208.818,338.433 208.969,338.433 209.756 M85.873 249.124 C 82.034 251.070,82.031 251.115,84.256 268.203 C 84.547 270.433,85.112 274.829,85.513 277.972 C 88.716 303.085,92.065 314.944,97.084 318.946 C 103.151 323.783,106.629 317.560,112.673 291.060 C 113.236 288.591,113.364 288.321,113.462 289.401 C 115.185 308.404,123.091 323.867,129.062 319.913 C 132.325 317.752,137.901 299.312,141.354 279.263 C 141.703 277.235,142.304 274.166,142.688 272.442 C 147.165 252.377,147.213 252.016,145.705 249.986 C 143.269 246.708,141.614 249.120,139.532 258.986 C 139.061 261.217,136.854 271.171,134.628 281.106 C 132.402 291.041,130.469 299.917,130.334 300.829 C 128.633 312.296,127.477 306.947,126.827 284.608 C 126.641 278.221,126.397 272.166,126.284 271.152 C 126.171 270.138,125.918 266.401,125.722 262.848 C 125.350 256.109,124.702 251.775,123.715 249.412 L 123.133 248.020 118.802 248.206 C 109.169 248.619,108.247 250.077,109.829 262.403 C 110.858 270.420,110.980 269.211,107.675 283.758 C 106.068 290.836,104.482 298.111,104.152 299.926 C 103.066 305.902,102.035 308.141,101.572 305.530 C 101.339 304.217,100.396 285.193,99.915 272.074 C 99.358 256.899,98.566 250.447,97.053 248.756 C 96.000 247.579,88.430 247.829,85.873 249.124 M200.140 248.993 C 197.570 250.769,197.557 250.859,196.849 271.705 C 196.639 277.889,196.225 287.753,195.929 293.625 C 194.746 317.111,195.341 320.304,200.970 320.662 C 205.170 320.929,205.000 321.439,206.441 304.332 C 206.851 299.465,207.280 294.781,207.394 293.922 L 207.601 292.361 209.857 295.165 C 216.804 303.800,226.548 311.889,230.004 311.889 C 233.555 311.889,233.089 310.814,226.820 304.554 C 221.966 299.706,216.430 293.262,214.494 290.203 L 213.797 289.103 217.153 287.183 C 232.992 278.119,240.281 265.948,235.705 256.204 C 231.004 246.196,220.491 246.930,213.016 257.788 C 211.794 259.562,210.763 261.014,210.724 261.014 C 210.685 261.014,210.777 259.894,210.930 258.525 C 211.916 249.655,211.208 248.357,205.284 248.183 C 201.726 248.078,201.387 248.131,200.140 248.993 M242.720 249.156 C 241.631 249.946,241.134 250.612,240.966 251.504 C 240.376 254.653,240.016 260.761,239.983 268.203 C 239.964 272.664,239.799 277.806,239.616 279.631 C 239.434 281.456,239.031 287.180,238.719 292.350 C 237.129 318.764,238.163 321.984,247.718 320.373 C 252.986 319.484,269.493 310.130,269.493 308.034 C 269.493 305.596,266.967 305.766,261.069 308.601 C 258.504 309.833,254.622 311.482,252.442 312.265 L 248.479 313.689 248.479 311.844 C 248.479 308.346,249.244 299.150,250.147 291.797 C 253.661 263.180,254.450 251.197,252.934 249.499 C 251.291 247.658,245.070 247.449,242.720 249.156 M276.313 248.545 C 271.162 249.583,270.762 250.151,270.249 257.174 C 268.858 276.188,268.716 303.048,269.999 304.464 C 270.665 305.200,270.666 305.307,270.045 307.602 C 265.629 323.917,281.133 328.372,295.939 315.043 C 310.894 301.580,316.818 264.876,305.940 253.075 C 300.786 247.484,292.433 248.973,286.595 256.525 C 285.604 257.807,284.342 259.440,283.791 260.155 L 282.789 261.454 282.987 255.427 C 283.109 251.711,283.045 249.199,282.820 248.874 C 282.361 248.211,278.852 248.034,276.313 248.545 M170.691 249.588 C 155.852 253.560,143.196 269.422,145.606 281.029 C 146.328 284.507,149.404 287.959,152.301 288.542 L 153.265 288.736 153.471 295.059 C 154.419 324.224,176.698 326.528,186.093 298.433 C 188.726 290.561,190.499 281.881,190.814 275.322 C 191.771 255.410,184.358 245.930,170.691 249.588 M180.091 255.483 C 184.161 258.283,185.186 268.176,182.705 280.712 C 176.231 313.428,163.430 324.533,164.158 296.804 C 164.379 288.379,164.239 288.779,167.760 286.463 C 173.194 282.886,177.327 278.429,177.327 276.144 C 177.327 274.816,174.689 275.704,171.805 278.002 C 170.414 279.110,166.286 281.659,165.882 281.659 C 165.487 281.659,166.624 275.753,167.443 273.549 C 169.645 267.629,168.264 265.525,162.071 265.362 C 157.907 265.252,156.382 267.734,154.314 277.987 L 153.495 282.052 152.507 280.237 C 149.946 275.532,151.864 270.241,158.421 263.920 C 166.428 256.201,175.820 252.545,180.091 255.483 M224.784 255.714 C 227.319 256.393,225.196 265.215,220.800 272.272 C 217.827 277.042,208.289 286.261,208.298 284.354 C 208.345 275.130,212.839 264.927,219.999 257.788 C 222.296 255.498,222.939 255.219,224.784 255.714 M298.486 256.137 C 304.055 260.630,301.118 282.729,292.751 299.274 C 288.215 308.245,280.781 314.924,275.940 314.378 C 268.105 313.495,282.477 296.671,292.442 295.060 C 293.987 294.810,294.065 294.622,293.265 293.075 C 292.206 291.027,290.157 291.229,284.793 293.908 C 283.171 294.718,281.541 295.648,281.172 295.974 C 279.551 297.406,281.505 273.496,283.321 269.677 C 288.157 259.509,295.043 253.361,298.486 256.137 " stroke="none" fill="#000000" fill-rule="evenodd"></path></g></svg>