<svg width="78" height="65" viewBox="0 0 78 65" fill="none" xmlns="http://www.w3.org/2000/svg">
<g filter="url(#filter0_d_502_435)">
<path d="M39 12.7373L46.2231 5.54842C46.2231 5.54842 58.5956 5.76216 70.9244 10.4289C67.7678 14.3155 61.5028 16.2178 61.5028 16.2178C61.0806 12.8032 58.1428 11.9696 48.8 11.9696L39.0022 57L29.1366 11.9607C19.8616 11.9607 16.9238 12.7961 16.5016 16.2089C16.5016 16.2089 10.2344 14.3261 7.08 10.4378C19.4066 5.77107 31.7812 5.55733 31.7812 5.55733L39.0044 12.7373H38.9934H39ZM39 3.47867C48.9575 3.40386 60.3631 4.73085 72.04 8.88638C73.6019 6.58508 74 5.57514 74 5.57514C61.2403 1.45524 49.2878 0.0374051 39 0C28.7122 0.0374051 16.7597 1.44811 4 5.57514C4 5.57514 4.56875 6.82732 5.96 8.89707C17.6391 4.72195 29.0425 3.40564 39 3.46977V3.47867Z" fill="black"/>
</g>
<defs>
<filter id="filter0_d_502_435" x="0" y="0" width="78" height="65" filterUnits="userSpaceOnUse" color-interpolation-filters="sRGB">
<feFlood flood-opacity="0" result="BackgroundImageFix"/>
<feColorMatrix in="SourceAlpha" type="matrix" values="0 0 0 0 0 0 0 0 0 0 0 0 0 0 0 0 0 0 127 0" result="hardAlpha"/>
<feOffset dy="4"/>
<feGaussianBlur stdDeviation="2"/>
<feComposite in2="hardAlpha" operator="out"/>
<feColorMatrix type="matrix" values="0 0 0 0 0 0 0 0 0 0 0 0 0 0 0 0 0 0 0.25 0"/>
<feBlend mode="normal" in2="BackgroundImageFix" result="effect1_dropShadow_502_435"/>
<feBlend mode="normal" in="SourceGraphic" in2="effect1_dropShadow_502_435" result="shape"/>
</filter>
</defs>
</svg>
