<svg width="72" height="72" viewBox="0 0 72 72" fill="none" xmlns="http://www.w3.org/2000/svg">
<rect width="72" height="72" rx="2" fill="white" fill-opacity="0.2"/>
<path fill-rule="evenodd" clip-rule="evenodd" d="M40.7282 30.4598L36.001 19.933L31.2738 30.4598L19.8196 31.6598L28.3735 39.3116L25.9724 50.5487L36.001 44.8071L46.0296 50.5487L43.6285 39.3116L52.1823 31.6598L40.7282 30.4598ZM28.1167 26.0984L15.2257 27.4489C12.7693 27.7062 11.7798 30.7292 13.6146 32.3705L23.244 40.9844L20.5544 53.5714C20.042 55.9698 22.6325 57.8381 24.7721 56.6132L36.001 50.1845L47.2298 56.6132C49.3694 57.8381 51.96 55.9698 51.4475 53.5714L48.7579 40.9844L58.3873 32.3705C60.2221 30.7292 59.2326 27.7062 56.7763 27.4489L43.8852 26.0984L38.6077 14.346C37.602 12.1067 34.3999 12.1067 33.3943 14.346L28.1167 26.0984Z" fill="white" fill-opacity="0.4"/>
</svg>
